<svg xmlns="http://www.w3.org/2000/svg" width="1600" height="900" viewBox="0 0 1600 900"><defs><linearGradient id="g" x1="0" x2="1"><stop stop-color="#153b7a"/><stop offset="1" stop-color="#2f78e5"/></linearGradient></defs><rect width="1600" height="900" fill="#f7f9fc"/><text x="800" y="90" text-anchor="middle" font-family="Arial" font-size="42" font-weight="700" fill="#172033">Real-Time Sign Language AI — System Architecture</text><g font-family="Arial" text-anchor="middle" fill="#172033"><g fill="url(#g)"><rect x="90" y="360" width="230" height="120" rx="22"/><rect x="430" y="360" width="230" height="120" rx="22"/><rect x="770" y="360" width="230" height="120" rx="22"/><rect x="1110" y="360" width="230" height="120" rx="22"/></g><g fill="#fff" font-size="28" font-weight="700"><text x="205" y="415">Camera Input</text><text x="545" y="415">YOLOv8</text><text x="885" y="415">Sequence + NLP</text><text x="1225" y="415">PyQt5 Output</text></g><g stroke="#2f78e5" stroke-width="10" fill="none"><path d="M320 420H410"/><path d="M660 420H750"/><path d="M1000 420H1090"/></g><g fill="#2f78e5"><path d="M410 400l35 20-35 20z"/><path d="M750 400l35 20-35 20z"/><path d="M1090 400l35 20-35 20z"/></g><g fill="#687180" font-size="22"><text x="205" y="535">Live hand gesture frames</text><text x="545" y="535">Gesture detection</text><text x="885" y="535">Recognition + Gemini sentence generation</text><text x="1225" y="535">Real-time translation interface</text></g></g></svg>